<svg width="68" height="66" viewBox="0 0 68 66" fill="none" xmlns="http://www.w3.org/2000/svg">
<g clip-path="url(#clip0)">
<path d="M35.1426 66C53.2892 66 68 51.2254 68 33C68 14.7746 53.2892 0 35.1426 0C16.9959 0 2.28516 14.7746 2.28516 33C2.28516 51.2254 16.9959 66 35.1426 66Z" fill="url(#paint0_radial)"/>
<path fill-rule="evenodd" clip-rule="evenodd" d="M63.121 31.9457C63.121 34.7371 62.7504 37.5284 61.9475 40.0717C60.4652 45.2822 57.6241 49.8724 53.7331 53.4701C51.0156 56.0134 47.7422 58.0604 44.16 59.425C40.9484 60.6656 37.428 61.348 33.784 61.348C33.2899 61.348 32.734 61.348 32.2399 61.2859C31.4988 61.2239 30.6959 61.1619 29.9547 61.0998C24.2726 60.3555 19.1464 57.9983 15.0083 54.4626C13.4643 53.16 12.0438 51.6713 10.7468 50.0585C9.82032 48.8179 8.95566 47.5773 8.15275 46.2126C7.96746 45.9025 7.78218 45.5303 7.59689 45.2201C7.59689 45.2201 7.59689 45.2201 7.59689 45.1581C7.4116 44.7859 7.22632 44.4758 7.10279 44.1036C6.6087 42.9871 6.17636 41.8085 5.80579 40.6299C5.55874 39.7615 5.3117 38.8931 5.12641 38.0247C5.00289 37.4044 4.87936 36.7841 4.8176 36.1017C4.63231 34.7371 4.50879 33.3724 4.50879 31.9457C4.50879 31.1393 4.57055 30.3329 4.63231 29.5265C4.69408 29.0303 4.75584 28.5341 4.8176 28.0378C5.18817 25.1224 5.99108 22.3931 7.16456 19.8498C7.72041 18.6092 8.3998 17.3686 9.14094 16.1901C10.3762 14.2671 11.7967 12.4683 13.4643 10.9175C18.7141 5.70699 25.9402 2.54346 33.8458 2.54346C34.1546 2.54346 34.4634 2.54346 34.7722 2.54346C35.081 2.54346 35.4516 2.54346 35.7604 2.60549C37.428 2.72955 39.0955 2.97767 40.7013 3.34985C41.6278 3.59797 42.5542 3.84609 43.4189 4.15624C44.0365 4.34233 44.5923 4.59045 45.21 4.83857C45.6423 5.02466 46.0746 5.21075 46.507 5.39684C46.5687 5.45887 46.6305 5.45887 46.754 5.5209C49.5951 6.94759 52.1891 8.74646 54.4125 10.9795C54.7213 11.2897 55.0301 11.5998 55.3389 11.91C55.5242 12.1581 55.7713 12.3442 55.9566 12.5923C56.2654 12.9645 56.6359 13.3987 56.9448 13.7709C58.1182 15.2596 59.1064 16.8724 59.9711 18.5472C60.9593 20.5322 61.7622 22.6412 62.3181 24.8123C62.8121 27.1074 63.121 29.4645 63.121 31.9457Z" fill="url(#paint1_radial)"/>
<g opacity="0.4">
<path opacity="0.4" fill-rule="evenodd" clip-rule="evenodd" d="M11.9819 18.7949C11.426 19.9114 10.9937 20.8419 10.8702 22.1445C10.8084 23.075 10.6231 23.9434 10.7466 24.8738C10.8702 25.8663 11.2407 26.6727 11.4878 27.6032C11.8583 28.7197 12.4142 29.7122 13.2171 30.5186C14.6376 31.8832 16.614 31.9453 18.2816 31.0148C19.1463 30.5186 19.8256 29.8983 20.7521 29.5261C21.9873 28.9678 23.1608 28.4716 24.0255 27.355C24.9519 26.1765 25.3225 24.7498 25.446 23.2611C25.5078 22.3926 25.6313 21.5242 25.446 20.6558C25.2607 19.9735 25.0137 19.2291 24.6431 18.6088C24.396 18.1126 24.0255 17.6163 23.7167 17.1821C23.2226 16.5618 22.6667 16.3137 21.9873 16.0035C21.555 15.8175 21.1844 15.5693 20.6903 15.5693C20.1345 15.5693 19.5168 15.5693 19.0227 15.6314C18.4051 15.6934 17.7875 15.9415 17.1699 16.1276C16.614 16.3137 15.9964 16.4378 15.4405 16.6859C14.8847 16.934 14.3288 17.1201 13.773 17.2441C12.9701 17.3682 12.3524 17.6163 11.7966 18.1746C11.6731 18.2987 11.426 18.4847 11.3025 18.6088C11.1172 18.919 11.179 19.2291 11.9819 18.7949Z" fill="#B9BFE2"/>
<path opacity="0.4" fill-rule="evenodd" clip-rule="evenodd" d="M22.5432 31.3249C22.7285 30.7667 22.7902 29.7742 23.3461 29.34C23.5314 29.1539 23.8402 29.0298 24.0872 28.9678C24.5196 28.8437 24.8284 29.0298 25.199 29.2159C26.1254 29.7121 25.9401 31.1388 25.446 31.9452C25.0137 32.6276 23.902 33.1858 23.1608 32.6276C22.6667 32.2554 22.4197 31.449 22.5432 30.8287C22.605 30.8287 22.605 30.8287 22.6667 30.8287L22.5432 31.3249Z" fill="#B9BFE2"/>
<path opacity="0.4" fill-rule="evenodd" clip-rule="evenodd" d="M40.2071 40.2574C40.1453 40.8157 39.96 41.7461 40.0835 42.3664C40.1453 42.9867 40.2688 43.607 40.4541 44.1653C40.7012 45.2198 41.1335 46.4604 42.2452 46.8326C43.2334 47.2048 44.4686 46.8326 45.3951 46.4604C46.3833 46.0262 47.5568 45.716 48.4832 45.0957C49.4096 44.4754 50.2743 43.7311 50.9537 42.8626C51.6948 41.9322 52.0036 41.0638 52.0654 39.8232C52.1271 38.0863 51.386 36.5356 50.5213 35.1089C49.5331 33.4961 47.742 32.9999 46.0127 33.6822C44.5304 34.1784 43.7893 35.7912 42.7393 36.8457C42.4305 37.1559 42.1835 37.5281 41.8129 37.8382C41.3805 38.1484 41.257 38.4585 41.01 38.8927C40.8247 39.2029 40.5159 39.451 40.3924 39.8232C40.1453 40.2574 40.2071 40.8157 40.2071 40.2574Z" fill="#B9BFE2"/>
<path opacity="0.4" fill-rule="evenodd" clip-rule="evenodd" d="M53.6099 39.3272C53.7334 39.2032 54.4128 37.6524 55.0304 37.7145C55.3392 37.7765 55.5862 38.0866 55.7098 38.3348C55.9568 38.7069 56.1421 39.0791 55.8333 39.5133C55.4627 40.0716 53.8569 40.5058 53.7951 39.4513C53.7334 39.4513 53.7334 39.4513 53.6716 39.4513V39.3272H53.6099Z" fill="#B9BFE2"/>
<path opacity="0.4" fill-rule="evenodd" clip-rule="evenodd" d="M29.8313 7.93979C29.9548 7.81573 30.6342 6.26498 31.2518 6.32701C31.5606 6.38904 31.8077 6.69919 31.9312 6.94731C32.1783 7.31949 32.3635 7.69167 32.0547 8.12588C31.6842 8.68415 30.0783 9.11836 30.0166 8.06385C29.9548 8.06385 29.9548 8.06385 29.8931 8.06385V7.93979H29.8313Z" fill="#B9BFE2"/>
<path opacity="0.4" fill-rule="evenodd" clip-rule="evenodd" d="M46.0742 30.0843C46.1977 29.9603 46.8771 28.4095 47.4948 28.4715C47.8036 28.5336 48.0506 28.8437 48.1741 29.0918C48.4212 29.464 48.6065 29.8362 48.2977 30.2704C47.9271 30.8287 46.3213 31.2629 46.2595 30.2084C46.1977 30.2084 46.1977 30.2084 46.136 30.2084V30.0843H46.0742Z" fill="#B9BFE2"/>
<path opacity="0.4" fill-rule="evenodd" clip-rule="evenodd" d="M42.0599 22.8892C41.6893 23.8196 41.257 24.4399 41.5658 25.3083C41.6893 25.7425 41.7511 26.1768 41.8746 26.611C42.1217 27.4794 42.8011 27.9756 43.3569 28.5959C44.1598 29.4023 44.8392 29.6504 45.8892 29.1542C46.2597 28.9681 46.5685 28.782 46.8774 28.5339C47.3715 28.1617 47.5567 27.9756 47.8038 27.4174C48.0508 26.9831 48.1126 26.5489 48.2979 26.0527C48.4832 25.5565 48.7302 25.1222 48.7302 24.564C48.7302 24.0057 48.792 23.3854 48.6685 22.8892C48.4832 22.2068 48.1126 21.5865 47.742 21.0283C47.4332 20.532 47.0626 20.0358 46.5685 19.6016C46.198 19.2294 45.7039 19.2294 45.2098 19.1053C44.3451 18.9192 43.1099 19.6016 42.6775 20.3459C41.9982 21.3384 41.6893 22.4549 42.0599 22.8892Z" fill="#B9BFE2"/>
<path opacity="0.4" fill-rule="evenodd" clip-rule="evenodd" d="M40.0217 28.4716C40.0835 29.1539 40.3305 29.7742 40.6393 30.3325C40.7629 30.2705 40.9482 30.2084 41.0717 30.1464C41.0717 29.9603 41.1952 29.8983 41.257 29.7122C41.3187 29.5261 41.257 29.278 41.257 29.0919C41.257 28.7197 41.1334 28.4716 41.0099 28.1615C40.8864 27.9133 40.7629 27.4791 40.4541 27.5411C39.8982 27.6652 39.96 28.1615 40.0217 28.4716Z" fill="#B9BFE2"/>
<path opacity="0.4" fill-rule="evenodd" clip-rule="evenodd" d="M10.8082 47.3287C10.8699 47.887 10.8082 48.3212 11.117 48.7554C11.4258 49.1896 11.7964 49.6238 12.1669 49.996C12.414 50.2441 12.8463 50.8024 13.2786 50.5543C13.6492 50.3682 13.711 49.6859 13.711 49.3137C13.711 49.0035 13.5875 48.6934 13.5257 48.4453C13.4639 48.1351 13.3404 47.825 13.0934 47.5148C12.7846 47.0186 12.0434 46.2122 11.364 46.5844C11.1787 46.7084 10.9935 46.7705 10.8699 47.0186C10.7464 47.2047 10.8082 47.3908 10.8082 47.3287Z" fill="#B9BFE2"/>
<path opacity="0.4" fill-rule="evenodd" clip-rule="evenodd" d="M25.446 44.9719C25.3224 44.7238 25.2607 44.4136 25.1989 44.1035C25.1372 44.0414 25.1989 43.9174 25.2607 43.8553C25.3842 43.5452 25.446 43.235 25.6313 42.9249C25.9401 42.4286 26.2489 41.8704 26.743 41.4982C26.9283 41.3741 27.1135 41.3741 27.3606 41.3121C27.5459 41.2501 27.7929 41.188 27.9782 41.126C28.3488 41.064 28.7811 41.126 29.1517 41.2501C29.584 41.3741 30.0781 41.4982 30.3869 41.6843C30.7575 41.8704 30.9428 42.2426 31.1898 42.5527C31.6222 43.235 31.8075 44.1655 31.1898 44.8478C31.0046 45.0339 30.8193 45.158 30.634 45.282C30.4487 45.4061 30.2016 45.5922 29.9546 45.7162C29.7076 45.8403 29.337 45.9023 29.0282 45.9644C28.4723 46.0884 27.8547 46.0884 27.2371 45.9023C26.6812 45.8403 26.2489 45.4061 25.446 44.9719Z" fill="#B9BFE2"/>
</g>
<path fill-rule="evenodd" clip-rule="evenodd" d="M50.892 21.4626C50.892 21.4626 49.348 24.316 50.1509 29.4645C52.0037 40.8781 58.2417 39.1412 57.8711 33.8066L50.892 21.4626Z" fill="url(#paint2_linear)"/>
<path fill-rule="evenodd" clip-rule="evenodd" d="M42.7392 50.4923C42.1834 54.8344 37.1189 57.8118 31.3133 57.1295C25.5694 56.4472 21.3078 52.2912 21.8019 47.9491C22.3578 43.6069 27.4223 40.6295 33.2279 41.3118C39.0335 41.9942 43.2951 46.0882 42.7392 50.4923Z" fill="url(#paint3_radial)"/>
<path fill-rule="evenodd" clip-rule="evenodd" d="M46.6923 5.5209C46.5687 5.5209 46.507 5.5209 46.3835 5.58293C46.0746 5.64496 45.7658 5.58293 45.457 5.5209C45.21 5.45887 45.0865 5.33481 44.7776 5.33481C44.4071 5.27278 44.0983 5.14872 43.7277 5.08669C43.3571 5.02466 43.0483 4.9006 42.6777 4.77654C42.3689 4.65248 42.2454 4.71451 41.9984 4.77654C41.7513 4.83857 41.566 4.71451 41.319 4.65248C41.0719 4.52842 40.7631 4.52842 40.5161 4.46639C39.7749 4.34233 39.0338 4.09421 38.2926 3.90812C37.8603 3.78406 37.428 3.78406 36.9339 3.78406C36.5633 3.78406 36.2545 3.90812 35.8839 3.90812C35.6369 3.78406 35.4516 3.72203 35.2045 3.72203C34.9575 3.66 34.7104 3.72203 34.4634 3.72203C34.0928 3.66 33.9075 3.59797 33.537 3.72203C33.2281 3.78406 33.0429 3.78406 32.7341 3.84609C32.4252 3.84609 32.0547 3.97015 31.7459 4.03218C31.19 4.15624 30.5724 4.2803 30.0165 4.2803C29.6459 4.2803 29.1519 4.15624 28.843 4.2803C28.6578 4.34233 28.5342 4.59045 28.3489 4.71451C28.0401 5.02466 27.7313 5.27278 27.4843 5.58293C27.2372 5.89308 26.9902 6.26526 26.9902 6.69947C26.9902 7.07165 27.1755 7.50586 27.3608 7.81601C27.546 8.18819 27.6078 8.49834 27.2372 8.74646C26.8049 9.05661 26.249 9.30473 25.7549 9.49082C25.3844 9.61488 25.0756 9.67691 24.8285 9.42879C24.705 9.36676 24.6432 9.18067 24.5197 9.05661C24.3962 8.99458 24.2109 9.05661 24.0874 9.11864C23.7168 9.2427 23.3462 9.36676 22.9756 9.42879C22.7286 9.49082 22.5433 9.61488 22.2963 9.61488C22.0492 9.67691 21.8639 9.49082 21.5551 9.55285C21.1846 9.61488 20.7522 9.80098 20.3816 9.80098C20.0728 9.80098 19.7023 9.67691 19.4552 9.55285C19.3317 9.49082 19.2699 9.36676 19.0846 9.42879C18.9611 9.42879 18.7758 9.61488 18.7141 9.73895C18.5905 9.86301 18.5905 10.0491 18.467 10.1732C18.3435 10.3592 18.2817 10.4833 18.1582 10.6694C17.9729 10.9795 17.7876 11.2897 17.6024 11.5998C17.4788 11.7859 17.3553 12.0961 17.17 12.2822C17.1083 12.4062 16.923 12.4683 16.7994 12.5303C16.4906 12.7164 16.1818 12.9645 15.873 13.1506C15.3172 13.5848 14.7613 14.081 14.2054 14.5153C13.7731 14.8254 13.1555 15.0115 12.6614 15.2596C12.3526 15.3837 12.0438 15.5077 11.735 15.6318C11.6114 15.6938 11.4261 15.6938 11.3644 15.8179C11.2409 15.942 11.1791 16.066 11.1173 16.2521C10.8703 16.5623 10.5615 16.9344 10.3762 17.3066C10.2527 17.5547 10.1909 17.7408 10.0674 17.9889C9.94386 18.2991 9.75857 18.6092 9.69681 18.9814C9.44976 19.6638 9.44976 20.4081 9.14095 21.0904C9.01743 21.4626 8.77038 21.8348 8.58509 22.207C8.27628 22.8273 8.21452 23.5716 8.15276 24.254C8.091 24.6262 8.15276 25.1224 8.21452 25.4946C8.27628 25.9288 8.27628 26.363 8.27628 26.7972C8.27628 27.2314 7.96747 27.7277 7.72043 28.0378C7.47338 28.348 7.04104 28.472 6.73223 28.7822C6.48519 29.0303 6.17638 29.2784 6.05285 29.6506C5.99109 29.7747 6.05285 29.9607 6.05285 30.1468C5.99109 30.519 5.86756 30.8292 5.86756 31.2013C5.8058 31.6356 5.8058 32.0698 5.8058 32.566C5.8058 32.8141 5.8058 33.0002 5.8058 33.2483C5.8058 33.4965 5.86757 33.6826 5.92933 33.8686C5.92933 33.9927 5.92933 34.1788 5.92933 34.3029C5.92933 34.4889 6.05285 34.675 6.05285 34.7991C6.17638 35.2333 6.23814 35.6055 6.2999 36.0397C6.36166 36.4119 6.54695 36.7841 6.60871 37.1562C6.794 37.6525 6.85576 38.1487 6.97928 38.707C7.04104 39.0792 7.04104 39.5134 7.10281 39.8856C7.16457 40.1957 7.22633 40.5059 7.22633 40.816C7.22633 41.3123 7.10281 41.7465 7.10281 42.2427C7.10281 43.0491 7.41162 43.8555 7.5969 44.6619C7.65866 44.91 7.72043 45.0961 7.78219 45.3442C5.74404 41.3743 4.63232 36.8461 4.63232 32.0698C4.63232 26.2389 6.2999 20.8423 9.20271 16.3141C10.438 14.3912 11.8585 12.5923 13.5261 11.0416C18.7141 5.70699 25.9402 2.54346 33.8458 2.54346C34.4634 2.54346 35.1428 2.54346 35.7604 2.60549C39.6514 2.85361 43.3571 3.90812 46.6923 5.5209Z" fill="url(#paint4_linear)"/>
<path fill-rule="evenodd" clip-rule="evenodd" d="M49.4714 21.5247C48.545 23.1995 45.1481 23.0134 41.9365 21.1525C38.7248 19.2916 36.9337 16.4382 37.8602 14.8254C38.7866 13.1506 42.1835 13.3367 45.3952 15.1976C48.6068 16.9965 50.3979 19.8499 49.4714 21.5247Z" fill="url(#paint5_radial)"/>
<path fill-rule="evenodd" clip-rule="evenodd" d="M55.9561 42.1804C55.9561 42.1804 53.0533 42.2425 50.6445 45.2199C48.2976 48.1973 48.2976 50.8646 48.6064 51.7331C48.977 52.6015 55.9561 42.1804 55.9561 42.1804Z" fill="url(#paint6_radial)"/>
<path fill-rule="evenodd" clip-rule="evenodd" d="M53.1771 36.1014C49.7802 36.5356 46.6303 33.6822 46.1362 29.7743C45.5804 25.8044 47.8656 22.2067 51.2625 21.7104C54.6594 21.2762 57.8093 24.1296 58.3034 28.0375C58.8592 32.0694 56.574 35.6672 53.1771 36.1014Z" fill="url(#paint7_radial)"/>
<path fill-rule="evenodd" clip-rule="evenodd" d="M16.4906 54.8967C13.4643 52.3534 10.932 49.1899 9.14094 45.6542C8.02923 43.4211 7.16456 41.0019 6.6087 38.4587C6.17636 36.4737 5.99108 34.4888 5.99108 32.3798C5.99108 26.5489 7.65865 21.1523 10.5615 16.6241C11.7967 14.7012 13.2172 12.9023 14.8848 11.3516C20.1346 6.20307 27.3607 3.03954 35.2663 3.03954C35.8839 3.03954 36.5633 3.03954 37.1809 3.10157C39.1573 3.22563 41.0719 3.53578 42.9248 4.09405C40.6396 3.34969 38.2309 2.85345 35.6986 2.72939C35.081 2.66736 34.4634 2.66736 33.784 2.66736C25.8785 2.66736 18.6523 5.83089 13.4025 10.9794C11.7967 12.5922 10.3144 14.329 9.07918 16.2519C6.17636 20.7801 4.50879 26.2388 4.50879 32.0076C4.50879 34.1166 4.75584 36.1016 5.12641 38.0865C5.68227 40.6298 6.48517 42.9869 7.65865 45.282C9.44975 48.8798 11.982 51.9813 15.0083 54.5245C18.22 57.2538 21.9874 59.2388 26.1255 60.3553C22.6051 59.1147 19.3317 57.2538 16.4906 54.8967Z" fill="url(#paint8_radial)"/>
<path fill-rule="evenodd" clip-rule="evenodd" d="M53.2386 53.9661C53.2386 53.9661 49.9034 54.7725 48.7917 52.2913C47.68 49.81 51.9416 43.1728 55.3385 42.3664C58.7354 41.498 59.4148 45.53 59.4148 45.53L53.2386 53.9661Z" fill="#004A59"/>
<path fill-rule="evenodd" clip-rule="evenodd" d="M33.1042 7.87769C33.1042 7.87769 34.463 12.5299 39.3422 16.0036C47.2478 21.6484 50.4594 19.6014 50.4594 19.6014L33.1042 7.87769Z" fill="url(#paint9_radial)"/>
<path fill-rule="evenodd" clip-rule="evenodd" d="M43.789 59.1767C43.789 59.1767 47.1859 57.3778 47.2477 54.9586C47.3095 52.5394 42.1214 49.1898 31.9925 47.7631C22.7282 46.3984 15.6255 48.4454 15.1932 50.2443C14.6991 52.0432 17.1696 56.4473 22.0488 58.6184C26.9897 60.7894 41.3185 60.4173 43.789 59.1767Z" fill="#004A59"/>
<path fill-rule="evenodd" clip-rule="evenodd" d="M27.6077 16.3757C27.6077 16.3757 29.6458 19.6633 32.8574 19.9114C36.0691 20.1596 36.9955 17.6784 36.9955 17.6784C36.9955 17.6784 29.7076 17.6163 27.6077 16.3757Z" fill="url(#paint10_radial)"/>
<path fill-rule="evenodd" clip-rule="evenodd" d="M26.249 13.7707C26.249 13.7707 27.3607 17.9888 31.6841 19.1053C36.4398 20.3459 37.8603 17.1824 37.1809 15.4456C36.5015 13.7707 30.8194 11.1035 26.249 13.7707Z" fill="#00777A"/>
<path fill-rule="evenodd" clip-rule="evenodd" d="M16.8611 12.344C16.8611 12.344 19.8874 12.9023 24.2725 10.235C28.7194 7.56773 27.793 5.14856 27.793 5.14856L16.8611 12.344Z" fill="url(#paint11_radial)"/>
<path fill-rule="evenodd" clip-rule="evenodd" d="M15.811 10.4208C15.811 10.4208 14.6992 11.9716 16.8609 12.3438C19.0226 12.716 26.434 9.11822 27.7928 6.32686C29.1516 3.59754 21.9872 2.10882 15.811 10.4208Z" fill="#00777A"/>
<path fill-rule="evenodd" clip-rule="evenodd" d="M35.3897 4.71448C35.3897 4.71448 32.4869 5.21072 32.3634 6.69944C32.1781 8.18816 36.9338 14.2671 42.1218 17.4306C47.3098 20.5942 52.3125 19.5397 53.1154 18.7953C53.8566 18.0509 46.3216 5.52087 35.3897 4.71448Z" fill="#006D7A"/>
<path fill-rule="evenodd" clip-rule="evenodd" d="M55.6474 22.0207C55.6474 22.0207 52.8681 19.1052 50.7065 20.2218C48.9154 21.0902 49.6565 30.0225 51.5711 33.3722C53.424 36.7838 55.8327 36.4737 56.8209 35.7293C57.6856 34.9229 57.8709 24.9981 55.6474 22.0207Z" fill="#004A59"/>
<path fill-rule="evenodd" clip-rule="evenodd" d="M55.4622 15.4456C55.4622 15.4456 54.5975 15.1974 54.0417 16.0038C53.4858 16.8102 57.3768 22.3929 59.0444 23.0753C60.712 23.7576 61.0208 21.4004 61.0208 21.4004L55.4622 15.4456Z" fill="#004A59"/>
<path fill-rule="evenodd" clip-rule="evenodd" d="M34.5251 6.63721C33.2281 8.8703 44.9629 21.4624 52.0656 19.1053C53.4861 18.609 54.2272 9.36654 49.4715 4.9624C45.5188 1.30263 37.0574 2.23308 34.5251 6.63721Z" fill="url(#paint12_radial)"/>
<path fill-rule="evenodd" clip-rule="evenodd" d="M52.0657 21.5862C49.9658 22.4546 50.2746 31.9452 52.9303 34.6746C55.5861 37.4039 59.6624 33.434 60.033 29.2779C60.4036 25.1219 55.4008 20.2215 52.0657 21.5862Z" fill="url(#paint13_radial)"/>
<path fill-rule="evenodd" clip-rule="evenodd" d="M54.783 16.5622C54.6595 18.4851 58.7358 22.6411 60.0328 22.2069C61.3298 21.7727 62.5033 18.7332 61.6386 16.5622C60.7739 14.3911 54.9683 14.2051 54.783 16.5622Z" fill="url(#paint14_radial)"/>
<path fill-rule="evenodd" clip-rule="evenodd" d="M17.5405 49.252C12.0437 50.6787 21.1845 61.5339 28.9665 62.9606C38.1073 64.6354 46.3834 58.4324 46.5687 55.0208C46.6922 51.6091 27.8548 46.5847 17.5405 49.252Z" fill="url(#paint15_radial)"/>
<path fill-rule="evenodd" clip-rule="evenodd" d="M49.6566 52.1053C48.6685 49.6862 54.4741 42.0565 57.1299 42.9869C59.8474 43.9174 61.5767 50.1824 57.9328 52.7877C55.8329 54.2764 50.7066 54.6486 49.6566 52.1053Z" fill="url(#paint16_radial)"/>
<path fill-rule="evenodd" clip-rule="evenodd" d="M16.9843 11.7856C19.7018 12.3438 26.0633 7.9397 27.175 5.83068C28.3485 3.72165 22.3576 0.930299 18.4048 2.97729C15.5638 4.40398 14.5756 11.2273 16.9843 11.7856Z" fill="url(#paint17_radial)"/>
<path fill-rule="evenodd" clip-rule="evenodd" d="M27.3608 11.8476C24.3345 13.2743 27.7314 17.1822 31.1901 18.3608C34.6487 19.4773 37.6751 17.4303 37.1192 15.1352C36.5634 12.7781 32.6724 9.36642 27.3608 11.8476Z" fill="url(#paint18_radial)"/>
<path fill-rule="evenodd" clip-rule="evenodd" d="M19.7639 47.5151C19.7639 47.5151 31.3134 45.8403 42.6776 50.6166C42.6776 50.6166 31.9928 44.0414 19.7639 47.5151Z" fill="url(#paint19_radial)"/>
<path fill-rule="evenodd" clip-rule="evenodd" d="M54.0417 16.562C54.0417 16.562 54.7829 20.2838 57.871 22.1447C57.8092 22.2068 54.9682 19.2913 54.0417 16.562Z" fill="url(#paint20_radial)"/>
<path fill-rule="evenodd" clip-rule="evenodd" d="M4.57037 31.9455C4.69389 33.4342 5.43504 25.3703 8.0908 24.0677C10.7466 22.765 18.8374 28.5959 22.5431 30.891C31.128 36.2256 40.8247 30.1466 43.2334 26.921C45.6421 23.6335 42.0599 18.547 40.0218 17.4304C37.9836 16.3139 36.9954 21.3383 32.8574 20.718C28.7193 20.1598 25.5695 15.3835 25.1989 13.7707C24.8283 12.1579 28.7811 9.92481 30.3869 9.67669C32.0545 9.42857 33.8456 4.83834 32.6721 3.78383C31.4986 2.72932 29.6458 7.81578 25.1371 10.8553C21.9255 13.0263 16.9228 15.0113 14.267 11.0413C14.3905 11.0413 3.45865 19.5395 4.57037 31.9455Z" fill="url(#paint21_radial)"/>
<path fill-rule="evenodd" clip-rule="evenodd" d="M35.451 7.07131C35.3275 9.05628 39.7126 8.12583 43.6654 7.93974C47.6182 7.69162 50.6445 7.69162 50.6445 7.69162C50.6445 7.69162 47.6799 4.21793 42.6772 3.65966C37.6745 3.10139 35.5128 5.83071 35.451 7.07131Z" fill="url(#paint22_linear)"/>
<path fill-rule="evenodd" clip-rule="evenodd" d="M16.5524 9.4908C17.7259 10.0491 18.0347 6.3893 19.7023 4.71449C21.3698 3.03968 23.2845 2.72953 23.2845 2.72953C23.2845 2.72953 19.9493 2.6675 17.8494 3.65998C15.6877 4.59043 15.5642 9.05659 16.5524 9.4908Z" fill="url(#paint23_linear)"/>
<path fill-rule="evenodd" clip-rule="evenodd" d="M26.99 12.654C26.99 12.654 28.9664 11.1032 31.4986 11.2273C34.0926 11.3513 35.9455 13.0882 35.9455 13.0882C35.9455 13.0882 33.9691 12.4679 32.6103 12.9021C31.2516 13.3363 29.1517 15.6314 26.99 12.654Z" fill="url(#paint24_linear)"/>
<path fill-rule="evenodd" clip-rule="evenodd" d="M51.8182 22.2065C51.8182 22.2065 54.5357 21.152 57.068 23.5712C59.6002 25.9283 59.7855 28.0994 59.7855 28.0994C59.7855 28.0994 58.1179 25.6182 56.5121 25.3701C54.8445 25.1219 52.8681 26.3625 52.0652 25.6182C51.2623 24.8738 51.1388 22.9509 51.8182 22.2065Z" fill="url(#paint25_linear)"/>
<path fill-rule="evenodd" clip-rule="evenodd" d="M55.3386 15.8177C55.3386 15.8177 55.8945 15.0734 57.8091 15.0734C59.7237 15.1354 60.8972 16.0038 61.3295 16.5621C61.7619 17.1204 61.5148 19.1053 61.5148 19.1053C61.5148 19.1053 61.3295 17.5546 60.5884 16.8102C59.8473 16.0658 55.3386 17.8647 55.3386 15.8177Z" fill="url(#paint26_linear)"/>
<path fill-rule="evenodd" clip-rule="evenodd" d="M50.645 48.8176C50.645 48.8176 54.0419 43.2969 56.5124 43.6691C58.9829 44.0413 59.8476 47.8872 59.8476 47.8872C59.8476 47.8872 58.3653 45.8402 55.4007 46.1503C52.3744 46.4605 50.645 48.8176 50.645 48.8176Z" fill="url(#paint27_linear)"/>
<path fill-rule="evenodd" clip-rule="evenodd" d="M16.5521 50.6163C16.5521 50.6163 21.1842 48.2592 30.5103 49.5618C39.8364 50.8644 45.1479 53.9039 45.1479 53.9039C45.1479 53.9039 35.513 51.7949 29.8309 52.7253C24.1488 53.6558 22.4195 58.6802 22.4195 58.6802C22.4195 58.6802 15.3786 55.7028 16.5521 50.6163Z" fill="url(#paint28_linear)"/>
<path fill-rule="evenodd" clip-rule="evenodd" d="M31.6221 62.5884C31.6221 62.5884 38.0453 61.6579 41.3187 60.1692C41.3187 60.1692 34.5249 64.0151 31.6221 62.5884Z" fill="#FFFF8D"/>
<path fill-rule="evenodd" clip-rule="evenodd" d="M50.4595 52.2292C50.4595 52.2292 53.0535 53.0977 56.4504 52.7875C56.5121 52.7875 52.4359 54.3383 50.4595 52.2292Z" fill="#FFFF8D"/>
<path fill-rule="evenodd" clip-rule="evenodd" d="M51.386 29.7122C51.386 29.7122 53.4859 33.6201 55.6476 34.5505C55.5858 34.6125 53.0536 35.481 51.386 29.7122Z" fill="#FFFF8D"/>
<path fill-rule="evenodd" clip-rule="evenodd" d="M40.6396 13.7706C40.6396 13.7706 44.5307 18.1127 50.6451 18.609L40.6396 13.7706Z" fill="#FFFF8D"/>
<path fill-rule="evenodd" clip-rule="evenodd" d="M27.9783 15.4453C27.9783 15.4453 30.0782 18.2367 33.9074 18.2987L27.9783 15.4453Z" fill="#FFFF8D"/>
<path fill-rule="evenodd" clip-rule="evenodd" d="M16.8611 11.2274C16.8611 11.2274 20.9374 10.6071 25.199 7.56763L16.8611 11.2274Z" fill="#FFFF8D"/>
<path fill-rule="evenodd" clip-rule="evenodd" d="M8.83228 28.0375C8.83228 28.0375 13.3409 31.5732 15.2555 40.1333C15.2555 40.1333 16.3672 31.7593 8.83228 28.0375Z" fill="url(#paint29_radial)"/>
<path fill-rule="evenodd" clip-rule="evenodd" d="M8.95527 46.0885C8.95527 46.0885 12.5992 47.8873 14.5756 46.0264C16.4902 44.1655 15.3168 37.8385 12.661 33.0001C10.0052 28.2238 6.73184 26.0528 5.37308 26.7971C4.44664 27.2313 -0.494318 39.1411 8.95527 46.0885Z" fill="#00777A"/>
<path fill-rule="evenodd" clip-rule="evenodd" d="M6.05255 27.9133C3.64383 27.293 1.7292 35.729 2.96445 40.3193C4.57026 46.2742 12.4758 47.1426 14.2051 45.3437C15.8109 43.5448 14.6992 30.1463 6.05255 27.9133Z" fill="url(#paint30_radial)"/>
<path fill-rule="evenodd" clip-rule="evenodd" d="M3.45863 39.6991C3.45863 39.6991 2.77925 31.0149 4.94092 29.4641C7.10259 27.9134 10.376 31.201 10.376 31.201C10.376 31.201 8.83192 31.6352 6.79378 32.7517C4.75563 33.8683 3.45863 39.6991 3.45863 39.6991Z" fill="url(#paint31_linear)"/>
<path fill-rule="evenodd" clip-rule="evenodd" d="M6.36157 43.9174C6.36157 43.9174 9.20263 45.4681 11.3643 45.6542C11.3025 45.6542 8.52324 46.7087 6.36157 43.9174Z" fill="#FFFF8D"/>
<path fill-rule="evenodd" clip-rule="evenodd" d="M61.2679 50.7404C61.7003 52.6013 60.0945 54.5862 57.624 55.2065C55.1535 55.8268 52.8065 54.7723 52.3742 52.9114C51.9419 51.0505 53.5477 49.0656 56.0182 48.4453C58.4269 47.887 60.7738 48.8795 61.2679 50.7404Z" fill="url(#paint32_radial)"/>
<path fill-rule="evenodd" clip-rule="evenodd" d="M5.3115 45.2201C2.65574 45.4062 0.308778 42.7389 -3.26186e-05 39.2652C-0.308843 35.7295 1.60578 32.752 4.26155 32.5039C6.91732 32.3178 9.26427 34.9851 9.57308 38.4588C9.88189 41.9945 7.96727 45.034 5.3115 45.2201Z" fill="url(#paint33_radial)"/>
<path fill-rule="evenodd" clip-rule="evenodd" d="M15.317 8.18824C13.7112 6.88561 13.6494 4.28035 15.1935 2.41944C16.7375 0.558541 19.2697 0.0623005 20.8756 1.36493C22.4814 2.66756 22.5431 5.27283 20.9991 7.13373C19.455 8.99463 16.9228 9.49087 15.317 8.18824Z" fill="url(#paint34_radial)"/>
<path fill-rule="evenodd" clip-rule="evenodd" d="M60.0329 25.3704C56.6359 25.8046 53.4861 22.9513 52.992 19.0434C52.4361 15.0734 54.7831 11.4757 58.1182 11.0415C61.5151 10.6073 64.665 13.4607 65.1591 17.3685C65.715 21.2764 63.4298 24.8742 60.0329 25.3704Z" fill="url(#paint35_radial)"/>
</g>
<defs>
<radialGradient id="paint0_radial" cx="0" cy="0" r="1" gradientUnits="userSpaceOnUse" gradientTransform="translate(35.1363 32.9927) scale(32.8501 32.9927)">
<stop offset="0.027933" stop-color="#00FFA9"/>
<stop offset="0.3833" stop-color="#00FFA5" stop-opacity="0.6344"/>
<stop offset="0.737" stop-color="#00FF99" stop-opacity="0.2705"/>
<stop offset="1" stop-color="#00FF8B" stop-opacity="0"/>
</radialGradient>
<radialGradient id="paint1_radial" cx="0" cy="0" r="1" gradientUnits="userSpaceOnUse" gradientTransform="translate(15.7394 18.1929) scale(47.0018 47.2058)">
<stop offset="0.00558659" stop-color="#0CC463"/>
<stop offset="0.2058" stop-color="#0CC163"/>
<stop offset="0.3613" stop-color="#0BB765"/>
<stop offset="0.5018" stop-color="#09A767"/>
<stop offset="0.6334" stop-color="#078F6B"/>
<stop offset="0.7576" stop-color="#04726F"/>
<stop offset="0.8715" stop-color="#004F74"/>
</radialGradient>
<linearGradient id="paint2_linear" x1="53.8692" y1="37.9496" x2="53.8692" y2="21.4925" gradientUnits="userSpaceOnUse">
<stop stop-color="#007C6F"/>
<stop offset="0.6647" stop-color="#29D73B"/>
<stop offset="0.9888" stop-color="#3BFF24"/>
</linearGradient>
<radialGradient id="paint3_radial" cx="0" cy="0" r="1" gradientUnits="userSpaceOnUse" gradientTransform="translate(32.3044 49.1763) rotate(7.01819) scale(10.5285 7.95343)">
<stop stop-color="#00FF00"/>
<stop offset="1" stop-color="#00FF00" stop-opacity="0"/>
</radialGradient>
<linearGradient id="paint4_linear" x1="4.60015" y1="23.876" x2="46.6908" y2="23.876" gradientUnits="userSpaceOnUse">
<stop offset="0.0111732" stop-color="#92FF2C"/>
<stop offset="0.2325" stop-color="#8FFC2D"/>
<stop offset="0.3947" stop-color="#86F332"/>
<stop offset="0.5382" stop-color="#76E33A"/>
<stop offset="0.6707" stop-color="#5FCD44"/>
<stop offset="0.7958" stop-color="#42B152"/>
<stop offset="0.9136" stop-color="#1F8E63"/>
<stop offset="1" stop-color="#007072"/>
</linearGradient>
<radialGradient id="paint5_radial" cx="0" cy="0" r="1" gradientUnits="userSpaceOnUse" gradientTransform="translate(43.6618 18.1624) rotate(30.108) scale(6.69624 3.45345)">
<stop stop-color="#00FF00"/>
<stop offset="1" stop-color="#00FF00" stop-opacity="0"/>
</radialGradient>
<radialGradient id="paint6_radial" cx="0" cy="0" r="1" gradientUnits="userSpaceOnUse" gradientTransform="translate(53.878 46.7878) scale(4.20112 4.21935)">
<stop offset="0.0111732" stop-color="#3BFF24"/>
<stop offset="0.5336" stop-color="#26D832"/>
<stop offset="1" stop-color="#11B140"/>
</radialGradient>
<radialGradient id="paint7_radial" cx="0" cy="0" r="1" gradientUnits="userSpaceOnUse" gradientTransform="translate(52.2267 28.9132) rotate(82.362) scale(7.24326 6.15601)">
<stop stop-color="#00FF00"/>
<stop offset="1" stop-color="#00FF00" stop-opacity="0"/>
</radialGradient>
<radialGradient id="paint8_radial" cx="0" cy="0" r="1" gradientUnits="userSpaceOnUse" gradientTransform="translate(12.4778 11.9353) scale(38.5132 38.6803)">
<stop stop-color="#FFFF4A"/>
<stop offset="1" stop-color="#FFFF00" stop-opacity="0"/>
</radialGradient>
<radialGradient id="paint9_radial" cx="0" cy="0" r="1" gradientUnits="userSpaceOnUse" gradientTransform="translate(45.6306 13.6972) scale(6.16558 6.19234)">
<stop offset="0.0167598" stop-color="#B0FF24"/>
<stop offset="0.2859" stop-color="#88F72B"/>
<stop offset="0.8869" stop-color="#25E43D"/>
<stop offset="1" stop-color="#11E040"/>
</radialGradient>
<radialGradient id="paint10_radial" cx="0" cy="0" r="1" gradientUnits="userSpaceOnUse" gradientTransform="translate(34.3856 18.093) scale(2.50834 2.51922)">
<stop offset="0.0167598" stop-color="#B0FF24"/>
<stop offset="0.2859" stop-color="#88F72B"/>
<stop offset="0.8869" stop-color="#25E43D"/>
<stop offset="1" stop-color="#11E040"/>
</radialGradient>
<radialGradient id="paint11_radial" cx="0" cy="0" r="1" gradientUnits="userSpaceOnUse" gradientTransform="translate(24.8347 8.67156) scale(3.77428 3.79066)">
<stop offset="0.0167598" stop-color="#B0FF24"/>
<stop offset="0.2859" stop-color="#88F72B"/>
<stop offset="0.8869" stop-color="#25E43D"/>
<stop offset="1" stop-color="#11E040"/>
</radialGradient>
<radialGradient id="paint12_radial" cx="0" cy="0" r="1" gradientUnits="userSpaceOnUse" gradientTransform="translate(43.3015 14.4438) scale(8.84692 8.88531)">
<stop offset="0.0111732" stop-color="#00FF24"/>
<stop offset="0.1859" stop-color="#28FF1E"/>
<stop offset="0.5798" stop-color="#8DFF10"/>
<stop offset="1" stop-color="#FFFF00"/>
</radialGradient>
<radialGradient id="paint13_radial" cx="0" cy="0" r="1" gradientUnits="userSpaceOnUse" gradientTransform="translate(52.1935 29.8884) scale(6.00654 6.03261)">
<stop offset="0.0111732" stop-color="#00FF24"/>
<stop offset="0.1859" stop-color="#28FF1E"/>
<stop offset="0.5798" stop-color="#8DFF10"/>
<stop offset="1" stop-color="#FFFF00"/>
</radialGradient>
<radialGradient id="paint14_radial" cx="0" cy="0" r="1" gradientUnits="userSpaceOnUse" gradientTransform="translate(57.3113 19.8142) scale(3.61463 3.63031)">
<stop offset="0.0111732" stop-color="#00FF24"/>
<stop offset="0.1859" stop-color="#28FF1E"/>
<stop offset="0.5798" stop-color="#8DFF10"/>
<stop offset="1" stop-color="#FFFF00"/>
</radialGradient>
<radialGradient id="paint15_radial" cx="0" cy="0" r="1" gradientUnits="userSpaceOnUse" gradientTransform="translate(30.4443 58.8636) scale(13.4293 13.4876)">
<stop offset="0.0111732" stop-color="#00FF24"/>
<stop offset="0.1859" stop-color="#28FF1E"/>
<stop offset="0.5798" stop-color="#8DFF10"/>
<stop offset="1" stop-color="#FFFF00"/>
</radialGradient>
<radialGradient id="paint16_radial" cx="0" cy="0" r="1" gradientUnits="userSpaceOnUse" gradientTransform="translate(54.5258 50.6621) scale(5.14984 5.17219)">
<stop offset="0.0111732" stop-color="#00FF24"/>
<stop offset="0.1859" stop-color="#28FF1E"/>
<stop offset="0.5798" stop-color="#8DFF10"/>
<stop offset="1" stop-color="#FFFF00"/>
</radialGradient>
<radialGradient id="paint17_radial" cx="0" cy="0" r="1" gradientUnits="userSpaceOnUse" gradientTransform="translate(21.2106 8.96226) scale(5.45124 5.4749)">
<stop offset="0.0111732" stop-color="#00FF24"/>
<stop offset="0.1859" stop-color="#28FF1E"/>
<stop offset="0.5798" stop-color="#8DFF10"/>
<stop offset="1" stop-color="#FFFF00"/>
</radialGradient>
<radialGradient id="paint18_radial" cx="0" cy="0" r="1" gradientUnits="userSpaceOnUse" gradientTransform="translate(31.4243 16.3532) scale(4.9871 5.00874)">
<stop offset="0.0111732" stop-color="#00FF24"/>
<stop offset="0.1859" stop-color="#28FF1E"/>
<stop offset="0.5798" stop-color="#8DFF10"/>
<stop offset="1" stop-color="#FFFF00"/>
</radialGradient>
<radialGradient id="paint19_radial" cx="0" cy="0" r="1" gradientUnits="userSpaceOnUse" gradientTransform="translate(30.6377 49.3979) scale(9.72375 9.76595)">
<stop offset="0.0111732" stop-color="#3BFF24"/>
<stop offset="0.5336" stop-color="#26D832"/>
<stop offset="1" stop-color="#11B140"/>
</radialGradient>
<radialGradient id="paint20_radial" cx="0" cy="0" r="1" gradientUnits="userSpaceOnUse" gradientTransform="translate(56.7707 19.2764) scale(2.40866 2.41911)">
<stop offset="0.0111732" stop-color="#3BFF24"/>
<stop offset="0.5336" stop-color="#26D832"/>
<stop offset="1" stop-color="#11B140"/>
</radialGradient>
<radialGradient id="paint21_radial" cx="0" cy="0" r="1" gradientUnits="userSpaceOnUse" gradientTransform="translate(13.1738 15.0794) scale(30.5218 30.6543)">
<stop stop-color="#97FF11"/>
<stop offset="1" stop-color="#00FF00" stop-opacity="0"/>
</radialGradient>
<linearGradient id="paint22_linear" x1="38.4264" y1="3.1914" x2="47.1408" y2="11.4127" gradientUnits="userSpaceOnUse">
<stop stop-color="#FFFFE8"/>
<stop offset="0.517" stop-color="#FFFFF7" stop-opacity="0.483"/>
<stop offset="1" stop-color="white" stop-opacity="0"/>
</linearGradient>
<linearGradient id="paint23_linear" x1="17.4483" y1="3.78174" x2="20.0992" y2="6.28275" gradientUnits="userSpaceOnUse">
<stop stop-color="#FFFFE8"/>
<stop offset="0.517" stop-color="#FFFFF7" stop-opacity="0.483"/>
<stop offset="1" stop-color="white" stop-opacity="0"/>
</linearGradient>
<linearGradient id="paint24_linear" x1="28.9601" y1="10.5379" x2="33.9218" y2="15.2189" gradientUnits="userSpaceOnUse">
<stop stop-color="#FFFFE8"/>
<stop offset="0.517" stop-color="#FFFFF7" stop-opacity="0.483"/>
<stop offset="1" stop-color="white" stop-opacity="0"/>
</linearGradient>
<linearGradient id="paint25_linear" x1="51.9528" y1="22.0506" x2="59.1157" y2="28.8083" gradientUnits="userSpaceOnUse">
<stop stop-color="#FFFFE8"/>
<stop offset="0.517" stop-color="#FFFFF7" stop-opacity="0.483"/>
<stop offset="1" stop-color="white" stop-opacity="0"/>
</linearGradient>
<linearGradient id="paint26_linear" x1="56.4882" y1="14.6022" x2="61.4265" y2="19.2611" gradientUnits="userSpaceOnUse">
<stop stop-color="#FFFFE8"/>
<stop offset="0.517" stop-color="#FFFFF7" stop-opacity="0.483"/>
<stop offset="1" stop-color="white" stop-opacity="0"/>
</linearGradient>
<linearGradient id="paint27_linear" x1="53.185" y1="45.517" x2="57.8633" y2="49.9306" gradientUnits="userSpaceOnUse">
<stop stop-color="#FFFFE8"/>
<stop offset="0.517" stop-color="#FFFFF7" stop-opacity="0.483"/>
<stop offset="1" stop-color="white" stop-opacity="0"/>
</linearGradient>
<linearGradient id="paint28_linear" x1="21.5825" y1="45.2816" x2="38.3758" y2="61.1248" gradientUnits="userSpaceOnUse">
<stop stop-color="#FFFFE8"/>
<stop offset="0.517" stop-color="#FFFFF7" stop-opacity="0.483"/>
<stop offset="1" stop-color="white" stop-opacity="0"/>
</linearGradient>
<radialGradient id="paint29_radial" cx="0" cy="0" r="1" gradientUnits="userSpaceOnUse" gradientTransform="translate(14.0739 34.4059) rotate(14.2231) scale(4.55522 4.5726)">
<stop offset="0.0167598" stop-color="#B0FF24"/>
<stop offset="0.2859" stop-color="#88F72B"/>
<stop offset="0.8869" stop-color="#25E43D"/>
<stop offset="1" stop-color="#11E040"/>
</radialGradient>
<radialGradient id="paint30_radial" cx="0" cy="0" r="1" gradientUnits="userSpaceOnUse" gradientTransform="translate(7.93312 40.5015) rotate(14.2231) scale(7.1541 7.18141)">
<stop offset="0.0111732" stop-color="#00FF24"/>
<stop offset="0.1859" stop-color="#28FF1E"/>
<stop offset="0.5798" stop-color="#8DFF10"/>
<stop offset="1" stop-color="#FFFF00"/>
</radialGradient>
<linearGradient id="paint31_linear" x1="3.65369" y1="30.2779" x2="7.86386" y2="36.8887" gradientUnits="userSpaceOnUse">
<stop stop-color="#FFFFE8"/>
<stop offset="0.517" stop-color="#FFFFF7" stop-opacity="0.483"/>
<stop offset="1" stop-color="white" stop-opacity="0"/>
</linearGradient>
<radialGradient id="paint32_radial" cx="0" cy="0" r="1" gradientUnits="userSpaceOnUse" gradientTransform="translate(56.8023 51.8357) rotate(-13.8613) scale(4.58569 3.46295)">
<stop stop-color="#00FF00"/>
<stop offset="1" stop-color="#00FF00" stop-opacity="0"/>
</radialGradient>
<radialGradient id="paint33_radial" cx="0" cy="0" r="1" gradientUnits="userSpaceOnUse" gradientTransform="translate(4.79846 38.8756) rotate(85.3504) scale(6.38935 4.78623)">
<stop stop-color="#00FF00"/>
<stop offset="1" stop-color="#00FF00" stop-opacity="0"/>
</radialGradient>
<radialGradient id="paint34_radial" cx="0" cy="0" r="1" gradientUnits="userSpaceOnUse" gradientTransform="translate(18.1019 4.76121) rotate(128.869) scale(4.39971 3.75145)">
<stop stop-color="#00FF00"/>
<stop offset="1" stop-color="#00FF00" stop-opacity="0"/>
</radialGradient>
<radialGradient id="paint35_radial" cx="0" cy="0" r="1" gradientUnits="userSpaceOnUse" gradientTransform="translate(59.0943 18.1623) rotate(82.362) scale(7.24327 6.156)">
<stop stop-color="#00FF00"/>
<stop offset="1" stop-color="#00FF00" stop-opacity="0"/>
</radialGradient>
<clipPath id="clip0">
<rect width="68" height="66" fill="white"/>
</clipPath>
</defs>
</svg>
