<svg width="22" height="21" viewBox="0 0 22 21" fill="none" xmlns="http://www.w3.org/2000/svg">
<path d="M11 17.3341C12.4872 17.3341 13.6928 16.1419 13.6928 14.6713C13.6928 13.2008 12.4872 12.0086 11 12.0086C9.51281 12.0086 8.30721 13.2008 8.30721 14.6713C8.30721 16.1419 9.51281 17.3341 11 17.3341Z" fill="white"/>
<path d="M20.5354 8.33513H15.3405L13.525 10.1304H17.5451C17.8197 11.4278 18.8571 12.4461 20.1768 12.7101V16.6024C18.8648 16.8739 17.835 17.8998 17.568 19.1972H4.4473C4.16505 17.8998 3.1276 16.8815 1.81553 16.6175V12.7252C3.1276 12.4537 4.16505 11.4203 4.43204 10.1228H8.46741L6.65187 8.32759H1.44938C0.648405 8.32759 0 8.96875 0 9.76078V19.5593C0 20.3588 0.656033 21 1.457 21H20.5506C21.3516 21 22 20.3588 22 19.5668V9.76832C21.9924 8.98384 21.344 8.33513 20.5354 8.33513Z" fill="white"/>
<path d="M15.3405 6.20797L11.6255 9.88147C11.2746 10.2284 10.7101 10.2284 10.3592 9.88147L6.65187 6.20797C6.08738 5.64978 6.48405 4.69935 7.28502 4.69935H9.15395V1.81789C9.15395 0.822198 9.98544 0 11 0C12.0146 0 12.8384 0.822198 12.8384 1.81789V4.69181H14.7074C15.5083 4.69935 15.905 5.64978 15.3405 6.20797Z" fill="white"/>
</svg>
